<svg xmlns="http://www.w3.org/2000/svg" width="197.067" height="75" viewBox="0 0 157.65376 60.000003"><g fill="#6d6e72"><path d="M51.19.008c.853-.003 1.71-.003 2.565-.003.014 3.984-.013 7.968.011 11.955 1.103-.856 2.25-1.73 3.645-2.033 1.83-.433 3.976.108 5.15 1.644.712 1.09.833 2.443.822 3.711-.02 2.779.014 5.555-.018 8.334-.85.01-1.7.005-2.547.007.005-2.778 0-5.554.007-8.333-.002-.88-.094-1.86-.743-2.521-.969-1.077-2.67-.988-3.876-.394-.89.46-1.878.938-2.419 1.812-.074 3.141-.008 6.29-.026 9.434-.86.002-1.715.002-2.571.002-.008-7.87-.006-15.744 0-23.615zM119.22.008c.852-.003 1.703-.003 2.556-.008.032 7.874.003 15.747.013 23.623h-2.563c-.01-7.87-.003-15.744-.005-23.615zM83.671 3.913c.912-.386 2.062.142 2.24 1.145.358 1.263-1.213 2.54-2.352 1.807-1.174-.575-1.13-2.497.112-2.952zM12.828 7.58a86.693 86.693 0 0 1 2.518-1.944c.01 1.481.008 2.965.003 4.446 1.331.01 2.663.006 3.997.01-.003.73-.003 1.458-.003 2.188-1.329.003-2.657.003-3.986 0-.008 2.411-.003 4.82-.008 7.23-.013.657.073 1.458.704 1.826.78.38 1.683.21 2.516.202.105.693.218 1.384.33 2.075-1.389.244-2.907.473-4.238-.126-1.35-.688-1.815-2.311-1.826-3.722-.015-2.495.008-4.987-.007-7.48-.77.006-1.537 0-2.301-.065.704-.822 1.492-1.568 2.285-2.303.02-.78.026-1.558.016-2.338zM22.637 12.664c1.778-2.91 6.108-3.8 8.871-1.789 2.122 1.455 2.613 4.31 2.385 6.708-3.322.018-6.647-.003-9.972.01.108 1.529 1 3.057 2.477 3.62 2.038.761 4.293.383 6.3-.297.16.709.336 1.415.525 2.116-2.707.925-5.904 1.337-8.509-.11-1.565-.782-2.65-2.356-3.086-4.02-.354-2.102-.276-4.442 1.009-6.238m2.492.404c-.688.702-.94 1.684-1.182 2.603 2.558.018 5.114.013 7.672.005-.216-1.01-.413-2.164-1.295-2.826-1.416-1.307-3.895-1.208-5.195.218zM41.809 10.03c2.198-.644 4.57.031 6.468 1.2-.36.622-.696 1.253-1.019 1.894-1.796-.912-4.005-1.652-5.92-.639-2.736 1.198-3.246 5.143-1.55 7.393.833.962 2.034 1.657 3.323 1.728 1.518.168 2.984-.373 4.307-1.058.276.654.565 1.305.875 1.943-2.01 1.198-4.441 1.731-6.734 1.132-1.636-.51-3.233-1.441-4.128-2.946-1.35-2.11-1.419-4.938-.25-7.139.898-1.799 2.7-3.04 4.628-3.508zM72.746 10.009c1.689-.504 3.732-.176 4.964 1.155.88.86 1.032 2.162 1.045 3.333.003 3.041 0 6.085-.003 9.126h-2.52c-.011-2.778.015-5.56-.009-8.338-.081-.906-.002-1.999-.78-2.64-.803-.869-2.143-.798-3.183-.488-1.077.47-2.211 1.072-2.876 2.07-.084 3.127-.005 6.263-.034 9.396h-2.545c-.002-4.512-.005-9.024 0-13.533.796-.002 1.592-.002 2.39-.002 0 .672.006 1.342.003 2.014 1.037-.911 2.198-1.73 3.548-2.093zM90.169 12.745c1.056-1.57 2.863-2.495 4.685-2.847 2.01-.39 4.055.266 5.807 1.23-.223.685-.504 1.35-.856 1.98-1.731-.757-3.703-1.584-5.576-.799-2.736.901-3.732 4.578-2.324 6.95.895 1.699 2.926 2.594 4.798 2.34 1.158-.05 2.198-.591 3.233-1.061.315.653.557 1.344.727 2.053-2.437 1.358-5.549 1.82-8.08.444-1.918-.888-3.247-2.786-3.667-4.827-.402-1.89.126-3.913 1.253-5.463zM108.101 9.927c2.272-.478 4.806.281 6.385 2.002 2.47 2.647 2.453 7.203-.019 9.848-2.665 2.96-8.013 2.763-10.379-.473-2.324-2.91-1.888-7.624 1.011-9.993a7.404 7.404 0 0 1 3.002-1.384m.231 2.093c-1.021.303-1.985.956-2.468 1.93-.778 1.259-.802 2.81-.602 4.232.294 1.41 1.187 2.807 2.603 3.296 1.358.585 2.999.344 4.173-.536 2.476-2.054 2.406-6.526-.265-8.386-.983-.73-2.288-.717-3.44-.536zM130.367 9.877c1.917-.346 3.973.224 5.489 1.434 3.225 2.595 3.298 8.097.247 10.855-2.425 2.203-6.424 2.274-8.959.218-3.238-2.595-3.34-8.026-.318-10.828a7.368 7.368 0 0 1 3.54-1.679m-.196 2.19c-.998.387-1.957 1.051-2.388 2.065-.892 1.87-.819 4.255.337 6.001 1.439 2.017 4.714 2.232 6.39.391 2.048-2.224 1.79-6.405-.86-8.062-1.013-.678-2.337-.62-3.48-.394zM143.559 12.278c1.15-1.487 2.94-2.403 4.81-2.537.011.848.011 1.696.017 2.547-1.526.124-3.17.434-4.302 1.547-.434.355-.365.943-.376 1.44.016 2.78.008 5.565.005 8.348h-2.61c-.003-4.512 0-9.024 0-13.533.82-.002 1.641-.002 2.463-.002.006.73.006 1.46-.007 2.19zM83.041 10.088c.843 0 1.684 0 2.527.002v13.533H83.06c.007-4.512-.011-9.024-.019-13.535z"/></g><path d="M0 37.595c2.635-1.854 5.185-3.853 7.914-5.562 3.285-.11 6.586-.024 9.877-.037-2.033 2.035-4.407 3.685-6.542 5.61-3.748-.006-7.498.013-11.248-.01z" fill="#81dcf9"/><path d="M17.791 31.996c3.401-.021 6.802-.018 10.2 0-1.733 1.954-3.666 3.724-5.47 5.612-3.755-.002-7.514.003-11.272-.002 2.135-1.925 4.51-3.575 6.542-5.61z" fill="#81c7eb"/><path d="M27.992 31.996c3.395-.018 6.794-.005 10.19-.008-1.382 1.92-2.96 3.69-4.326 5.618h-.113c-3.742.005-7.482 0-11.222.002 1.804-1.888 3.737-3.658 5.47-5.612z" fill="#81a6d0"/><path d="M38.182 31.988c3.346-.003 6.689-.005 10.035.003-.93 1.93-2.114 3.724-3.12 5.615-3.748.002-7.493 0-11.24 0 1.365-1.928 2.943-3.698 4.325-5.618z" fill="#b296c7"/><path d="M48.217 31.99c3.398-.005 6.796-.007 10.198 0-.607 1.91-1.377 3.759-2.112 5.618-3.735.003-7.47.003-11.206-.002 1.006-1.891 2.19-3.685 3.12-5.615z" fill="#c894bb"/><path d="M58.415 31.99c3.395-.007 6.794 0 10.19-.002a109.652 109.652 0 0 1-1.048 5.62c-3.753.003-7.504 0-11.254 0 .735-1.86 1.505-3.708 2.112-5.617z" fill="#de92ae"/><path d="M68.604 31.988c3.41-.008 6.818-.005 10.227 0-.01 1.875-.005 3.748-.008 5.623-3.755-.005-7.51-.005-11.266-.003.399-1.862.745-3.737 1.047-5.62z" fill="#f78d97"/><path d="M78.831 31.988c3.33.005 6.66.003 9.99.003.528 1.851.894 3.742 1.337 5.617-3.779.006-7.555.003-11.335.003.003-1.875-.002-3.748.008-5.623z" fill="#f9b292"/><path d="M88.822 31.99c3.398-.01 6.799-.002 10.2-.005a185.032 185.032 0 0 1 2.345 5.623c-3.737-.002-7.471 0-11.209 0-.443-1.875-.809-3.766-1.336-5.617z" fill="#ffe086"/><path d="M99.022 31.985c3.39-.002 6.784-.01 10.177.003 1.04 1.912 2.424 3.624 3.322 5.612-3.719.014-7.437.006-11.154.008-.748-1.89-1.536-3.76-2.345-5.623z" fill="#fff681"/><path d="M109.199 31.988c3.42-.003 6.839-.013 10.258.005 1.447 1.92 3.005 3.756 4.525 5.618-3.784-.01-7.571.008-11.356-.01h-.105c-.898-1.989-2.282-3.701-3.322-5.613z" fill="#e5ee95"/><path d="M119.457 31.993c3.362-.01 6.723-.013 10.085 0 1.778 1.936 3.81 3.625 5.534 5.615-3.698.003-7.396-.002-11.094.003-1.52-1.862-3.078-3.698-4.525-5.618z" fill="#c7e29f"/><path d="M129.542 31.993c3.443-.01 6.886-.013 10.33.003 1.958 2.106 4.346 3.745 6.518 5.612-3.732-.002-7.464 0-11.196 0h-.118c-1.723-1.99-3.756-3.68-5.534-5.615z" fill="#80d39f"/><path d="M139.871 31.996c3.112-.026 6.225-.003 9.34-.013.538-.058 1.01.228 1.428.538 2.319 1.713 4.722 3.312 7.015 5.066-3.756.048-7.509.006-11.264.021-2.172-1.867-4.56-3.506-6.519-5.612z" fill="#80c5a6"/><path d="M0 37.595c3.751.024 7.501.005 11.25.01.015 5.217.007 10.432.007 15.645-3.748.006-7.493-.007-11.24.008C-.018 48.038.014 42.816 0 37.595z" fill="#00b9f2"/><path d="M11.25 37.606c3.757.005 7.516 0 11.271.002-.016 4.573-.018 9.142.003 13.715.005 2.891.013 5.785-.005 8.677-3.756-.016-7.509.003-11.262-.01v-6.74c0-5.213.008-10.428-.008-15.644z" fill="#008fd5"/><path d="M22.521 37.608c3.74-.002 7.48.003 11.222-.002.037 4.572.005 9.144.016 13.714-3.745.003-7.49 0-11.235.003-.021-4.573-.019-9.142-.003-13.715z" fill="#034da2"/><path d="M33.743 37.606h.113c3.748 0 7.493.002 11.24 0 .016 5.554.011 11.109.006 16.663-3.78.014-7.559 0-11.335.008-.008-.985-.008-1.972-.008-2.957-.01-4.57.021-9.142-.016-13.714z" fill="#662e91"/><path d="M45.097 37.606c3.737.005 7.471.005 11.206.002.052 6.506-.008 13.014.031 19.519.006.761.003 1.52.003 2.282-3.745.01-7.49.003-11.235.005-.003-1.715-.005-3.43 0-5.145.005-5.554.01-11.109-.005-16.663z" fill="#942977"/><path d="M56.303 37.608c3.75 0 7.5.003 11.254 0-.006 5.1-.016 10.2.002 15.298.008 1.408.003 2.813.003 4.22-3.743.006-7.485.003-11.228 0-.039-6.504.021-13.012-.031-19.518z" fill="#bf245e"/><path d="M67.557 37.608c3.755-.002 7.51-.002 11.266.003-.002 5.098.003 10.195-.002 15.293-3.753.008-7.509.002-11.262.002-.018-5.097-.008-10.197-.002-15.298z" fill="#ec1b30"/><path d="M78.823 37.611c3.78 0 7.556.003 11.335-.003.019 4.785-.008 9.573.013 14.36.008 1.831 0 3.66.008 5.487-3.784.032-7.569.003-11.353.016-.005-1.52-.003-3.044-.005-4.567.005-5.098 0-10.195.002-15.293z" fill="#f36523"/><path d="M90.158 37.608c3.738 0 7.472-.002 11.21 0-.048 4.788 0 9.576-.024 14.366-3.724-.01-7.448-.003-11.173-.005-.02-4.788.006-9.576-.013-14.36z" fill="#ffc20f"/><path d="M101.367 37.608c3.717-.002 7.435.006 11.154-.008h.105c-.065 4.255-.026 8.51-.02 12.764.01 1.715-.003 3.433.007 5.148-3.76-.034-7.527.089-11.285-.066.026-1.158.018-2.314.016-3.472.023-4.79-.024-9.578.023-14.366z" fill="#ffec01"/><path d="M112.626 37.6c3.785.019 7.572 0 11.356.011-.016 3.48 0 6.96-.008 10.44-.002.772-.002 1.541-.002 2.313-3.79-.002-7.58-.002-11.367 0-.005-4.254-.044-8.509.021-12.764z" fill="#cadb2a"/><path d="M123.982 37.611c3.698-.005 7.396 0 11.094-.003h.118c-.03 3.48-.003 6.96-.016 10.442-3.735.003-7.47 0-11.204 0 .008-3.48-.008-6.96.008-10.439z" fill="#8ec63f"/><path d="M135.194 37.608c3.732 0 7.464-.002 11.196 0 .023 5.319-.003 10.637.023 15.952-3.745.003-7.49.003-11.232 0 .002-1.835.002-3.674-.003-5.51.013-3.482-.013-6.962.016-10.442z" fill="#00a640"/><path d="M146.39 37.608c3.755-.015 7.508.027 11.264-.02-.021 6.733-.003 13.467-.01 20.2-3.743-.002-7.486 0-11.228-.002.003-1.408.005-2.818-.003-4.226-.026-5.315 0-10.633-.023-15.952z" fill="#008a4c"/></svg>